<svg width="128" height="128" viewBox="0 0 128 128" fill="none" xmlns="http://www.w3.org/2000/svg">
<rect width="128" height="128" rx="16" fill="white"/>
<mask id="path-2-outside-1_420_51" maskUnits="userSpaceOnUse" x="33" y="27" width="62" height="75" fill="black">
<rect fill="white" x="33" y="27" width="62" height="75"/>
<path d="M66.1818 100.455C59.6364 100.455 54 98.9091 49.2727 95.8182C44.5455 92.7273 40.9091 88.4697 38.3636 83.0455C35.8182 77.6212 34.5455 71.4242 34.5455 64.4545C34.5455 57.3636 35.8485 51.1061 38.4545 45.6818C41.0909 40.2273 44.7576 35.9697 49.4545 32.9091C54.1818 29.8182 59.697 28.2727 66 28.2727C70.9091 28.2727 75.3333 29.1818 79.2727 31C83.2121 32.8182 86.4394 35.3636 88.9545 38.6364C91.4697 41.9091 93.0303 45.7273 93.6364 50.0909H82.9091C82.0909 46.9091 80.2727 44.0909 77.4545 41.6364C74.6667 39.1515 70.9091 37.9091 66.1818 37.9091C62 37.9091 58.3333 39 55.1818 41.1818C52.0606 43.3333 49.6212 46.3788 47.8636 50.3182C46.1364 54.2273 45.2727 58.8182 45.2727 64.0909C45.2727 69.4848 46.1212 74.1818 47.8182 78.1818C49.5455 82.1818 51.9697 85.2879 55.0909 87.5C58.2424 89.7121 61.9394 90.8182 66.1818 90.8182C68.9697 90.8182 71.5 90.3333 73.7727 89.3636C76.0455 88.3939 77.9697 87 79.5455 85.1818C81.1212 83.3636 82.2424 81.1818 82.9091 78.6364H93.6364C93.0303 82.7576 91.5303 86.4697 89.1364 89.7727C86.7727 93.0455 83.6364 95.6515 79.7273 97.5909C75.8485 99.5 71.3333 100.455 66.1818 100.455Z"/>
</mask>
<path d="M66.1818 100.455C59.6364 100.455 54 98.9091 49.2727 95.8182C44.5455 92.7273 40.9091 88.4697 38.3636 83.0455C35.8182 77.6212 34.5455 71.4242 34.5455 64.4545C34.5455 57.3636 35.8485 51.1061 38.4545 45.6818C41.0909 40.2273 44.7576 35.9697 49.4545 32.9091C54.1818 29.8182 59.697 28.2727 66 28.2727C70.9091 28.2727 75.3333 29.1818 79.2727 31C83.2121 32.8182 86.4394 35.3636 88.9545 38.6364C91.4697 41.9091 93.0303 45.7273 93.6364 50.0909H82.9091C82.0909 46.9091 80.2727 44.0909 77.4545 41.6364C74.6667 39.1515 70.9091 37.9091 66.1818 37.9091C62 37.9091 58.3333 39 55.1818 41.1818C52.0606 43.3333 49.6212 46.3788 47.8636 50.3182C46.1364 54.2273 45.2727 58.8182 45.2727 64.0909C45.2727 69.4848 46.1212 74.1818 47.8182 78.1818C49.5455 82.1818 51.9697 85.2879 55.0909 87.5C58.2424 89.7121 61.9394 90.8182 66.1818 90.8182C68.9697 90.8182 71.5 90.3333 73.7727 89.3636C76.0455 88.3939 77.9697 87 79.5455 85.1818C81.1212 83.3636 82.2424 81.1818 82.9091 78.6364H93.6364C93.0303 82.7576 91.5303 86.4697 89.1364 89.7727C86.7727 93.0455 83.6364 95.6515 79.7273 97.5909C75.8485 99.5 71.3333 100.455 66.1818 100.455Z" fill="#0B2C5A"/>
<path d="M49.2727 95.8182L48.7255 96.6552L48.7255 96.6552L49.2727 95.8182ZM38.4545 45.6818L37.5542 45.2466L37.5532 45.2488L38.4545 45.6818ZM49.4545 32.9091L50.0005 33.7469L50.0018 33.7461L49.4545 32.9091ZM88.9545 38.6364L89.7474 38.027L89.7474 38.027L88.9545 38.6364ZM93.6364 50.0909V51.0909H94.7849L94.6269 49.9533L93.6364 50.0909ZM82.9091 50.0909L81.9406 50.3399L82.1337 51.0909H82.9091V50.0909ZM77.4545 41.6364L76.7891 42.3829L76.7978 42.3904L77.4545 41.6364ZM55.1818 41.1818L55.7494 42.0052L55.751 42.004L55.1818 41.1818ZM47.8636 50.3182L46.9504 49.9107L46.9489 49.914L47.8636 50.3182ZM47.8182 78.1818L46.8976 78.5724L46.9001 78.5783L47.8182 78.1818ZM55.0909 87.5L54.5127 88.3159L54.5164 88.3185L55.0909 87.5ZM73.7727 89.3636L73.3803 88.4439L73.3803 88.4439L73.7727 89.3636ZM79.5455 85.1818L80.3011 85.8367L80.3011 85.8367L79.5455 85.1818ZM82.9091 78.6364V77.6364H82.1373L81.9417 78.383L82.9091 78.6364ZM93.6364 78.6364L94.6257 78.7819L94.7942 77.6364H93.6364V78.6364ZM89.1364 89.7727L88.3267 89.1859L88.3257 89.1872L89.1364 89.7727ZM79.7273 97.5909L80.1689 98.4881L80.1717 98.4867L79.7273 97.5909ZM66.1818 100.455V99.4545C59.7991 99.4545 54.36 97.9497 49.82 94.9812L49.2727 95.8182L48.7255 96.6552C53.64 99.8685 59.4736 101.455 66.1818 101.455V100.455ZM49.2727 95.8182L49.82 94.9812C45.2575 91.9981 41.7406 87.8876 39.2689 82.6206L38.3636 83.0455L37.4584 83.4703C40.0776 89.0518 43.8334 93.4565 48.7255 96.6552L49.2727 95.8182ZM38.3636 83.0455L39.2689 82.6206C36.7952 77.3493 35.5455 71.3012 35.5455 64.4545H34.5455H33.5455C33.5455 71.5472 34.8411 77.8931 37.4584 83.4703L38.3636 83.0455ZM34.5455 64.4545H35.5455C35.5455 57.487 36.8254 51.3819 39.3559 46.1149L38.4545 45.6818L37.5532 45.2488C34.8716 50.8302 33.5455 57.2402 33.5455 64.4545H34.5455ZM38.4545 45.6818L39.3549 46.117C41.9186 40.8127 45.4684 36.7001 50.0005 33.7469L49.4545 32.9091L48.9086 32.0713C44.0468 35.2393 40.2632 39.6418 37.5542 45.2466L38.4545 45.6818ZM49.4545 32.9091L50.0018 33.7461C54.5479 30.7736 59.868 29.2727 66 29.2727V28.2727V27.2727C59.5259 27.2727 53.8158 28.8627 48.9073 32.0721L49.4545 32.9091ZM66 28.2727V29.2727C70.7835 29.2727 75.0619 30.1579 78.8537 31.908L79.2727 31L79.6918 30.092C75.6047 28.2057 71.0347 27.2727 66 27.2727V28.2727ZM79.2727 31L78.8537 31.908C82.6539 33.6619 85.7502 36.1079 88.1617 39.2457L88.9545 38.6364L89.7474 38.027C87.1286 34.6194 83.7704 31.9745 79.6918 30.092L79.2727 31ZM88.9545 38.6364L88.1617 39.2457C90.564 42.3717 92.062 46.0246 92.6459 50.2285L93.6364 50.0909L94.6269 49.9533C93.9986 45.4299 92.3754 41.4465 89.7474 38.027L88.9545 38.6364ZM93.6364 50.0909V49.0909H82.9091V50.0909V51.0909H93.6364V50.0909ZM82.9091 50.0909L83.8776 49.8419C83.0023 46.4379 81.0604 43.4508 78.1113 40.8823L77.4545 41.6364L76.7978 42.3904C79.4851 44.731 81.1795 47.3803 81.9406 50.3399L82.9091 50.0909ZM77.4545 41.6364L78.1199 40.8898C75.1041 38.2018 71.087 36.9091 66.1818 36.9091V37.9091V38.9091C70.7312 38.9091 74.2292 40.1012 76.7892 42.3829L77.4545 41.6364ZM66.1818 37.9091V36.9091C61.816 36.9091 57.9466 38.0515 54.6126 40.3596L55.1818 41.1818L55.751 42.004C58.72 39.9485 62.184 38.9091 66.1818 38.9091V37.9091ZM55.1818 41.1818L54.6143 40.3585C51.3218 42.628 48.7723 45.8272 46.9504 49.9107L47.8636 50.3182L48.7769 50.7256C50.4702 46.9303 52.7994 44.0386 55.7494 42.0052L55.1818 41.1818ZM47.8636 50.3182L46.9489 49.914C45.1539 53.9765 44.2727 58.7107 44.2727 64.0909H45.2727H46.2727C46.2727 58.9257 47.1188 54.478 48.7783 50.7223L47.8636 50.3182ZM45.2727 64.0909H44.2727C44.2727 69.5876 45.1372 74.4229 46.8976 78.5724L47.8182 78.1818L48.7388 77.7913C47.1052 73.9408 46.2727 69.382 46.2727 64.0909H45.2727ZM47.8182 78.1818L46.9001 78.5783C48.6898 82.7227 51.222 85.9836 54.5127 88.3159L55.0909 87.5L55.6691 86.6841C52.7174 84.5921 50.4011 81.641 48.7362 77.7854L47.8182 78.1818ZM55.0909 87.5L54.5164 88.3185C57.8533 90.6607 61.7557 91.8182 66.1818 91.8182V90.8182V89.8182C62.1231 89.8182 58.6316 88.7635 55.6654 86.6815L55.0909 87.5ZM66.1818 90.8182V91.8182C69.0873 91.8182 71.7534 91.3124 74.1652 90.2834L73.7727 89.3636L73.3803 88.4439C71.2466 89.3542 68.8521 89.8182 66.1818 89.8182V90.8182ZM73.7727 89.3636L74.1652 90.2834C76.5736 89.2558 78.6232 87.7728 80.3011 85.8367L79.5455 85.1818L78.7898 84.5269C77.3162 86.2272 75.5173 87.5321 73.3803 88.4439L73.7727 89.3636ZM79.5455 85.1818L80.3011 85.8367C81.9865 83.8922 83.1746 81.5694 83.8765 78.8897L82.9091 78.6364L81.9417 78.383C81.3102 80.7943 80.256 82.8351 78.7898 84.5269L79.5455 85.1818ZM82.9091 78.6364V79.6364H93.6364V78.6364V77.6364H82.9091V78.6364ZM93.6364 78.6364L92.647 78.4909C92.0639 82.4561 90.624 86.0162 88.3267 89.1859L89.1364 89.7727L89.9461 90.3596C92.4366 86.9232 93.9967 83.059 94.6257 78.7819L93.6364 78.6364ZM89.1364 89.7727L88.3257 89.1872C86.0647 92.3178 83.0585 94.8219 79.2828 96.6951L79.7273 97.5909L80.1717 98.4867C84.2142 96.4811 87.4808 93.7731 89.947 90.3582L89.1364 89.7727ZM79.7273 97.5909L79.2857 96.6937C75.5682 98.5234 71.2093 99.4545 66.1818 99.4545V100.455V101.455C71.4574 101.455 76.1288 100.477 80.1689 98.4881L79.7273 97.5909Z" fill="#0B2C5A" mask="url(#path-2-outside-1_420_51)"/>
</svg>
